/* XPM */
static char *battery_medium[] = {
/* columns rows colors chars-per-pixel */
"12 18 3 1 ",
"  c None",
". c #8AE181",
"# c #9981E1",
/* pixels */
"            ",
"    ####    ",
"    ####    ",
" ########## ",
" ########## ",
" ##      ## ",
" ##      ## ",
" ##      ## ",
" ##      ## ",
" ## .... ## ",
" ## .... ## ",
" ##      ## ",
" ## .... ## ",
" ## .... ## ",
" ##      ## ",
" ########## ",
" ########## ",
"            ",
};
