/* XPM */
static char *battery_critical[] = {
/* columns rows colors chars-per-pixel */
"12 18 2 1 ",
"  c None",
"# c #E18181",
/* pixels */
"            ",
"    ####    ",
"    ####    ",
" ########## ",
" ########## ",
" ##      ## ",
" ##      ## ",
" ##      ## ",
" ##      ## ",
" ##      ## ",
" ##      ## ",
" ##      ## ",
" ##      ## ",
" ##      ## ",
" ##      ## ",
" ########## ",
" ########## ",
"            ",
};
