/* XPM */
static char *battery[] = {
/* columns rows colors chars-per-pixel */
"12 18 3 1 ",
"  c None",
". c #8AE181",
"# c #FFFFFF",
/* pixels */
"            ",
"    ####    ",
"    ####    ",
" ########## ",
" ########## ",
" ##      ## ",
" ## .... ## ",
" ## .... ## ",
" ##      ## ",
" ## .... ## ",
" ## .... ## ",
" ##      ## ",
" ## .... ## ",
" ## .... ## ",
" ##      ## ",
" ########## ",
" ########## ",
"            ",
};
