/* XPM */
static char *square_sel[] = {
/* columns rows colors chars-per-pixel */
"64 44 2 1 ",
"* c #0099CC",
"  c None",
/* pixels */
"                                                                ",
"                                                                ",
"**********                                                      ",
"**********                                                      ",
"**********                                                      ",
"**********                                                      ",
"**********                                                      ",
"**********                                                      ",
"**********                                                      ",
"**********                                                      ",
"**********                                                      ",
"**********                                                      ",
"                                                                ",
"                                                                ",
"                                                                ",
"                                                                ",
"                                                                ",
"                                                                ",
"                                                                ",
"                                                                ",
"                                                                ",
"                                                                ",
"                                                                ",
"                                                                ",
"                                                                ",
"                                                                ",
"                                                                ",
"                                                                ",
"                                                                ",
"                                                                ",
"                                                                ",
"                                                                ",
"                                                                ",
"                                                                ",
"                                                                ",
"                                                                ",
"                                                                ",
"                                                                ",
"                                                                ",
"                                                                ",
"                                                                ",
"                                                                ",
"                                                                ",
"                                                                "
};
