/* XPM */
static char *square_sel[] = {
/* columns rows colors chars-per-pixel */
"32 14 2 1 ",
"* c #0099CC",
"  c None",
/* pixels */
"                                ",
"                                ",
"*****                           ",
"*****                           ",
"*****                           ",
"*****                           ",
"*****                           ",
"                                ",
"                                ",
"                                ",
"                                ",
"                                ",
"                                ",
"                                "
};
